@startuml

skinparam class {
    BackgroundColor LightSkyBlue
}

skinparam classBorder {
    Color red
}

skinparam arrowColor red

package "PyQt6.QtWidgets" {
    class "QWidget" {
        + __init__()
    }

    class "QApplication" {
        + __init__([])
        + exec()
    }
}

package "main" {
    class "connection_hub" {
        + __init__(credentials: str, table: str)
    }

    class "write2table" {
        + __init__(page: QWidget, a_list: list)
    }
}

package "UI_Files" {
    class "mentors_ui" {
        + Ui_FormMentor()
    }
}

class "MentorPage" {
    - current_user: list
    - form_mentor: Ui_FormMentor
    - mentees: list
    - menu_user: UserMenuPage
    - menu_admin: AdminMenuPage
    + __init__(current_user: list)
    + filter_options(index: int = 4) : list
    + search()
    + get_all_applications()
    + filter_table(index: int = 4)
    + back_menu()
    + app_exit()
}

MentorPage --> QWidget
MentorPage --> Ui_FormMentor
MentorPage --> UserMenuPage
MentorPage --> AdminMenuPage
MentorPage --> connection_hub
MentorPage --> write2table

MentorPage ..> QApplication

@enduml
